<svg xmlns="http://www.w3.org/2000/svg" viewBox="0 0 32 32"><defs><linearGradient id="aiGrad" x1="0%" y1="0%" x2="100%" y2="100%"><stop offset="0%" stop-color="#8B5CF6"/><stop offset="50%" stop-color="#EC4899"/><stop offset="100%" stop-color="#3B82F6"/></linearGradient></defs><rect x="2" y="2" width="28" height="28" rx="6" fill="url(#aiGrad)"/><path d="M16 6c.5 4.5 4.5 8.5 9 9-4.5.5-8.5 4.5-9 9-.5-4.5-4.5-8.5-9-9 4.5-.5 8.5-4.5 9-9z" fill="#FFFFFF"/><path d="M8 7c.2 1.8 1.8 3.2 3.5 3.5-1.7.3-3.3 1.7-3.5 3.5-.2-1.8-1.8-3.2-3.5-3.5 1.7-.3 3.3-1.7 3.5-3.5z" fill="#FEF08A"/></svg>